<?xml version="1.0" encoding="iso-8859-1"?>
<!DOCTYPE svg PUBLIC "-//W3C//DTD SVG 1.1//EN" "http://www.w3.org/Graphics/SVG/1.1/DTD/svg11.dtd">
<svg 
 version="1.1" xmlns="http://www.w3.org/2000/svg" xmlns:xlink="http://www.w3.org/1999/xlink" x="0px" y="0px" width="512px"
	 height="512px" viewBox="0 0 512 512" style="enable-background:new 0 0 512 512;" xml:space="preserve"
><g id="afcae5a789ccd549f9c6e2a2f80a07d0"><g></g><g fill="#e65218"><path style="display: inline;" d="M281.222,230.879c-12.335,5.359-31.476,8.038-57.421,8.038V104.758
		c26.677-0.162,46.047,2.262,58.106,7.286c12.061,5.027,21.334,12.354,27.821,21.986c6.479,9.631,9.727,21.982,9.727,37.052
		c0,15.075-3.29,27.471-9.864,37.185C303.008,217.982,293.556,225.518,281.222,230.879z M286.84,265.797
		c-14.072-5.021-35.082-7.451-63.039-7.285v109.285l-0.274,12.559c0,9.047,2.512,15.871,7.539,20.479
		c5.024,4.607,12.472,6.908,22.335,6.908c14.618,0,28.096-2.975,40.431-8.918c12.329-5.941,21.79-14.57,28.364-25.877
		c6.579-11.305,9.868-23.904,9.868-37.811c0-15.91-4.021-30.186-12.064-42.832C311.961,279.658,300.907,270.82,286.84,265.797z
		 M511.5,256c0,141.107-114.393,255.5-255.5,255.5S0.5,397.107,0.5,256S114.893,0.5,256,0.5S511.5,114.893,511.5,256z
		 M428.537,332.377c0-24.287-10.233-44.053-30.698-59.295c-14.246-10.715-39.011-19.847-74.271-27.383
		c32.706-7.535,55.54-17.711,68.516-30.523c12.975-12.813,19.462-27.425,19.462-43.839c0-15.578-5.115-30.274-15.349-44.093
		c-10.235-13.814-24.211-24.202-41.935-31.151c-17.724-6.949-47.873-10.426-90.449-10.426H85.667v9.294
		c16.991,0,28.594,1.427,34.807,4.271c6.209,2.853,10.554,6.658,13.017,11.432c2.47,4.774,3.705,16.372,3.705,34.794v221.083
		c0,18.428-1.235,29.984-3.705,34.672c-2.463,4.686-6.758,8.5-12.879,11.43c-6.122,2.93-17.773,4.396-34.944,4.396v9.295h188.839
		c52.622,0,92.731-10.135,120.318-30.398C417.301,379.188,428.537,358,428.537,332.377z"></path></g></g></svg>